<mxfile host="app.diagrams.net" modified="2024-03-30T15:59:20.549Z" agent="Mozilla/5.0 (X11; Linux x86_64) AppleWebKit/537.36 (KHTML, like Gecko) Chrome/123.0.0.0 Safari/537.36" etag="eLr0KtND24wPHxn2AT0N" version="24.0.8" type="device">
  <diagram name="Страница — 1" id="sKsNSZGLWStOT0Do7ozX">
    <mxGraphModel dx="666" dy="1594" grid="1" gridSize="10" guides="1" tooltips="1" connect="1" arrows="1" fold="1" page="1" pageScale="1" pageWidth="827" pageHeight="1169" math="0" shadow="0">
      <root>
        <mxCell id="0" />
        <mxCell id="1" parent="0" />
        <mxCell id="LGNBoOKkBdpqijX-xDUZ-1" value="Начало" style="rounded=1;whiteSpace=wrap;html=1;arcSize=50;" vertex="1" parent="1">
          <mxGeometry x="327.5" y="-30" width="80" height="30" as="geometry" />
        </mxCell>
        <mxCell id="LGNBoOKkBdpqijX-xDUZ-2" value="&lt;font style=&quot;font-size: 12px;&quot;&gt;Ввод&lt;/font&gt;&lt;div style=&quot;&quot;&gt;&lt;font style=&quot;font-size: 12px;&quot;&gt;&lt;span style=&quot;background-color: transparent; font-family: &amp;quot;Times New Roman&amp;quot;, serif; text-align: left;&quot;&gt;&amp;nbsp;[mas + i*4]&lt;/span&gt;&amp;nbsp;&lt;/font&gt;&lt;/div&gt;" style="shape=parallelogram;perimeter=parallelogramPerimeter;whiteSpace=wrap;html=1;fixedSize=1;" vertex="1" parent="1">
          <mxGeometry x="315" y="130" width="105" height="40" as="geometry" />
        </mxCell>
        <mxCell id="LGNBoOKkBdpqijX-xDUZ-4" value="i = 0; i &amp;lt; 5; i++" style="shape=hexagon;perimeter=hexagonPerimeter2;whiteSpace=wrap;html=1;fixedSize=1;" vertex="1" parent="1">
          <mxGeometry x="310" y="240" width="115" height="30" as="geometry" />
        </mxCell>
        <mxCell id="LGNBoOKkBdpqijX-xDUZ-5" value="i = 0; i &amp;lt; 25; i++" style="shape=hexagon;perimeter=hexagonPerimeter2;whiteSpace=wrap;html=1;fixedSize=1;" vertex="1" parent="1">
          <mxGeometry x="310" y="70" width="115" height="30" as="geometry" />
        </mxCell>
        <mxCell id="LGNBoOKkBdpqijX-xDUZ-7" value="" style="endArrow=classic;html=1;rounded=0;exitX=0.448;exitY=1.03;exitDx=0;exitDy=0;exitPerimeter=0;entryX=0;entryY=0.5;entryDx=0;entryDy=0;" edge="1" parent="1" source="LGNBoOKkBdpqijX-xDUZ-2" target="LGNBoOKkBdpqijX-xDUZ-5">
          <mxGeometry width="50" height="50" relative="1" as="geometry">
            <mxPoint x="320" y="190" as="sourcePoint" />
            <mxPoint x="280" y="40" as="targetPoint" />
            <Array as="points">
              <mxPoint x="362" y="200" />
              <mxPoint x="280" y="200" />
              <mxPoint x="280" y="85" />
            </Array>
          </mxGeometry>
        </mxCell>
        <mxCell id="LGNBoOKkBdpqijX-xDUZ-8" value="j = 0; j &amp;lt; 5; j++" style="shape=hexagon;perimeter=hexagonPerimeter2;whiteSpace=wrap;html=1;fixedSize=1;" vertex="1" parent="1">
          <mxGeometry x="310" y="310" width="110" height="30" as="geometry" />
        </mxCell>
        <mxCell id="LGNBoOKkBdpqijX-xDUZ-9" value="mas[i, j]&amp;gt;0" style="rhombus;whiteSpace=wrap;html=1;" vertex="1" parent="1">
          <mxGeometry x="325" y="380" width="80" height="40" as="geometry" />
        </mxCell>
        <mxCell id="LGNBoOKkBdpqijX-xDUZ-10" value="sum+=mas[i, j]" style="rounded=0;whiteSpace=wrap;html=1;" vertex="1" parent="1">
          <mxGeometry x="370" y="430" width="101" height="30" as="geometry" />
        </mxCell>
        <mxCell id="LGNBoOKkBdpqijX-xDUZ-13" value="sum = 0" style="rounded=0;whiteSpace=wrap;html=1;" vertex="1" parent="1">
          <mxGeometry x="327.5" y="20" width="80" height="30" as="geometry" />
        </mxCell>
        <mxCell id="LGNBoOKkBdpqijX-xDUZ-14" value="ДА" style="text;html=1;align=center;verticalAlign=middle;whiteSpace=wrap;rounded=0;" vertex="1" parent="1">
          <mxGeometry x="420" y="390" width="60" height="30" as="geometry" />
        </mxCell>
        <mxCell id="LGNBoOKkBdpqijX-xDUZ-15" value="НЕТ" style="text;html=1;align=center;verticalAlign=middle;whiteSpace=wrap;rounded=0;" vertex="1" parent="1">
          <mxGeometry x="250" y="380" width="60" height="30" as="geometry" />
        </mxCell>
        <mxCell id="LGNBoOKkBdpqijX-xDUZ-17" value="" style="endArrow=classic;html=1;rounded=0;entryX=0;entryY=0.5;entryDx=0;entryDy=0;" edge="1" parent="1" target="LGNBoOKkBdpqijX-xDUZ-8">
          <mxGeometry width="50" height="50" relative="1" as="geometry">
            <mxPoint x="330" y="400" as="sourcePoint" />
            <mxPoint x="380" y="350" as="targetPoint" />
            <Array as="points">
              <mxPoint x="290" y="400" />
              <mxPoint x="290" y="490" />
              <mxPoint x="360" y="490" />
              <mxPoint x="360" y="510" />
              <mxPoint x="250" y="510" />
              <mxPoint x="250" y="325" />
            </Array>
          </mxGeometry>
        </mxCell>
        <mxCell id="LGNBoOKkBdpqijX-xDUZ-23" value="" style="endArrow=none;html=1;rounded=0;exitX=0.5;exitY=1;exitDx=0;exitDy=0;" edge="1" parent="1" source="LGNBoOKkBdpqijX-xDUZ-10">
          <mxGeometry width="50" height="50" relative="1" as="geometry">
            <mxPoint x="330" y="400" as="sourcePoint" />
            <mxPoint x="360" y="490" as="targetPoint" />
            <Array as="points">
              <mxPoint x="421" y="490" />
            </Array>
          </mxGeometry>
        </mxCell>
        <mxCell id="LGNBoOKkBdpqijX-xDUZ-24" value="" style="endArrow=none;html=1;rounded=0;exitX=1;exitY=0.5;exitDx=0;exitDy=0;entryX=0.5;entryY=0;entryDx=0;entryDy=0;" edge="1" parent="1" source="LGNBoOKkBdpqijX-xDUZ-9" target="LGNBoOKkBdpqijX-xDUZ-10">
          <mxGeometry width="50" height="50" relative="1" as="geometry">
            <mxPoint x="330" y="400" as="sourcePoint" />
            <mxPoint x="380" y="350" as="targetPoint" />
            <Array as="points">
              <mxPoint x="420" y="400" />
            </Array>
          </mxGeometry>
        </mxCell>
        <mxCell id="LGNBoOKkBdpqijX-xDUZ-25" value="" style="endArrow=none;html=1;rounded=0;entryX=0.5;entryY=0;entryDx=0;entryDy=0;exitX=0.5;exitY=1;exitDx=0;exitDy=0;" edge="1" parent="1" source="LGNBoOKkBdpqijX-xDUZ-8" target="LGNBoOKkBdpqijX-xDUZ-9">
          <mxGeometry width="50" height="50" relative="1" as="geometry">
            <mxPoint x="370" y="340" as="sourcePoint" />
            <mxPoint x="380" y="350" as="targetPoint" />
          </mxGeometry>
        </mxCell>
        <mxCell id="LGNBoOKkBdpqijX-xDUZ-26" value="" style="endArrow=classic;html=1;rounded=0;exitX=1;exitY=0.5;exitDx=0;exitDy=0;entryX=0;entryY=0.5;entryDx=0;entryDy=0;" edge="1" parent="1" source="LGNBoOKkBdpqijX-xDUZ-8" target="LGNBoOKkBdpqijX-xDUZ-4">
          <mxGeometry width="50" height="50" relative="1" as="geometry">
            <mxPoint x="330" y="400" as="sourcePoint" />
            <mxPoint x="380" y="350" as="targetPoint" />
            <Array as="points">
              <mxPoint x="520" y="325" />
              <mxPoint x="520" y="540" />
              <mxPoint x="210" y="540" />
              <mxPoint x="210" y="255" />
            </Array>
          </mxGeometry>
        </mxCell>
        <mxCell id="LGNBoOKkBdpqijX-xDUZ-27" value="" style="endArrow=none;html=1;rounded=0;entryX=0.5;entryY=1;entryDx=0;entryDy=0;exitX=0.5;exitY=0;exitDx=0;exitDy=0;" edge="1" parent="1" source="LGNBoOKkBdpqijX-xDUZ-2" target="LGNBoOKkBdpqijX-xDUZ-5">
          <mxGeometry width="50" height="50" relative="1" as="geometry">
            <mxPoint x="330" y="250" as="sourcePoint" />
            <mxPoint x="380" y="200" as="targetPoint" />
          </mxGeometry>
        </mxCell>
        <mxCell id="LGNBoOKkBdpqijX-xDUZ-28" value="" style="endArrow=none;html=1;rounded=0;entryX=0.5;entryY=1;entryDx=0;entryDy=0;exitX=0.5;exitY=0;exitDx=0;exitDy=0;" edge="1" parent="1" source="LGNBoOKkBdpqijX-xDUZ-5" target="LGNBoOKkBdpqijX-xDUZ-13">
          <mxGeometry width="50" height="50" relative="1" as="geometry">
            <mxPoint x="330" y="250" as="sourcePoint" />
            <mxPoint x="380" y="200" as="targetPoint" />
          </mxGeometry>
        </mxCell>
        <mxCell id="LGNBoOKkBdpqijX-xDUZ-29" value="" style="endArrow=none;html=1;rounded=0;exitX=0.5;exitY=1;exitDx=0;exitDy=0;entryX=0.5;entryY=0;entryDx=0;entryDy=0;" edge="1" parent="1" source="LGNBoOKkBdpqijX-xDUZ-1" target="LGNBoOKkBdpqijX-xDUZ-13">
          <mxGeometry width="50" height="50" relative="1" as="geometry">
            <mxPoint x="330" y="20" as="sourcePoint" />
            <mxPoint x="380" y="-30" as="targetPoint" />
          </mxGeometry>
        </mxCell>
        <mxCell id="LGNBoOKkBdpqijX-xDUZ-30" value="" style="endArrow=classic;html=1;rounded=0;exitX=1;exitY=0.5;exitDx=0;exitDy=0;" edge="1" parent="1" source="LGNBoOKkBdpqijX-xDUZ-5">
          <mxGeometry width="50" height="50" relative="1" as="geometry">
            <mxPoint x="330" y="290" as="sourcePoint" />
            <mxPoint x="380" y="240" as="targetPoint" />
            <Array as="points">
              <mxPoint x="460" y="85" />
              <mxPoint x="460" y="220" />
              <mxPoint x="380" y="220" />
            </Array>
          </mxGeometry>
        </mxCell>
        <mxCell id="LGNBoOKkBdpqijX-xDUZ-32" value="&lt;font style=&quot;font-size: 12px;&quot;&gt;Вывод&lt;/font&gt;&lt;div style=&quot;&quot;&gt;&lt;font style=&quot;font-size: 12px;&quot;&gt;&lt;span style=&quot;background-color: transparent; font-family: &amp;quot;Times New Roman&amp;quot;, serif; text-align: left;&quot;&gt;&amp;nbsp;sum&lt;/span&gt;&amp;nbsp;&lt;/font&gt;&lt;/div&gt;" style="shape=parallelogram;perimeter=parallelogramPerimeter;whiteSpace=wrap;html=1;fixedSize=1;" vertex="1" parent="1">
          <mxGeometry x="309" y="610" width="105" height="40" as="geometry" />
        </mxCell>
        <mxCell id="LGNBoOKkBdpqijX-xDUZ-33" value="" style="endArrow=classic;html=1;rounded=0;exitX=1;exitY=0.5;exitDx=0;exitDy=0;entryX=0.5;entryY=0;entryDx=0;entryDy=0;" edge="1" parent="1" source="LGNBoOKkBdpqijX-xDUZ-4" target="LGNBoOKkBdpqijX-xDUZ-32">
          <mxGeometry width="50" height="50" relative="1" as="geometry">
            <mxPoint x="330" y="490" as="sourcePoint" />
            <mxPoint x="380" y="440" as="targetPoint" />
            <Array as="points">
              <mxPoint x="560" y="255" />
              <mxPoint x="560" y="580" />
              <mxPoint x="362" y="580" />
            </Array>
          </mxGeometry>
        </mxCell>
        <mxCell id="LGNBoOKkBdpqijX-xDUZ-34" value="Конец" style="rounded=1;whiteSpace=wrap;html=1;arcSize=50;" vertex="1" parent="1">
          <mxGeometry x="321.5" y="690" width="80" height="30" as="geometry" />
        </mxCell>
        <mxCell id="LGNBoOKkBdpqijX-xDUZ-35" value="" style="endArrow=none;html=1;rounded=0;entryX=0.5;entryY=1;entryDx=0;entryDy=0;exitX=0.5;exitY=0;exitDx=0;exitDy=0;" edge="1" parent="1" source="LGNBoOKkBdpqijX-xDUZ-34" target="LGNBoOKkBdpqijX-xDUZ-32">
          <mxGeometry width="50" height="50" relative="1" as="geometry">
            <mxPoint x="330" y="610" as="sourcePoint" />
            <mxPoint x="380" y="560" as="targetPoint" />
          </mxGeometry>
        </mxCell>
      </root>
    </mxGraphModel>
  </diagram>
</mxfile>
